<?xml version="1.0" encoding="UTF-8"?>
<svg xmlns="http://www.w3.org/2000/svg" width="1024" height="1024" viewBox="0 0 1024 1024">
  <defs>
    <linearGradient id="ring" x1="0" y1="0" x2="0" y2="1"><stop offset="0" stop-color="#E7C169"/><stop offset="1" stop-color="#A67C2E"/></linearGradient>
    <radialGradient id="field" cx="0.38" cy="0.32" r="0.78"><stop offset="0" stop-color="#1C1714"/><stop offset="1" stop-color="#141010"/></radialGradient>
  </defs>
  <rect width="1024" height="1024" fill="#0D0B0A"/>
  <circle cx="512.0" cy="512.0" r="372.0" fill="url(#field)"/>
  <line x1="884.0" y1="512.0" x2="910.0" y2="512.0" stroke="#D4A94C" stroke-opacity="0.5" stroke-width="12.0"/>
  <line x1="871.3" y1="608.3" x2="896.4" y2="615.0" stroke="#D4A94C" stroke-opacity="0.5" stroke-width="12.0"/>
  <line x1="834.2" y1="698.0" x2="856.7" y2="711.0" stroke="#D4A94C" stroke-opacity="0.5" stroke-width="12.0"/>
  <line x1="775.0" y1="775.0" x2="793.4" y2="793.4" stroke="#D4A94C" stroke-opacity="0.5" stroke-width="12.0"/>
  <line x1="698.0" y1="834.2" x2="711.0" y2="856.7" stroke="#D4A94C" stroke-opacity="0.5" stroke-width="12.0"/>
  <line x1="608.3" y1="871.3" x2="615.0" y2="896.4" stroke="#D4A94C" stroke-opacity="0.5" stroke-width="12.0"/>
  <line x1="512.0" y1="884.0" x2="512.0" y2="910.0" stroke="#D4A94C" stroke-opacity="0.5" stroke-width="12.0"/>
  <line x1="415.7" y1="871.3" x2="409.0" y2="896.4" stroke="#D4A94C" stroke-opacity="0.5" stroke-width="12.0"/>
  <line x1="326.0" y1="834.2" x2="313.0" y2="856.7" stroke="#D4A94C" stroke-opacity="0.5" stroke-width="12.0"/>
  <line x1="249.0" y1="775.0" x2="230.6" y2="793.4" stroke="#D4A94C" stroke-opacity="0.5" stroke-width="12.0"/>
  <line x1="189.8" y1="698.0" x2="167.3" y2="711.0" stroke="#D4A94C" stroke-opacity="0.5" stroke-width="12.0"/>
  <line x1="152.7" y1="608.3" x2="127.6" y2="615.0" stroke="#D4A94C" stroke-opacity="0.5" stroke-width="12.0"/>
  <line x1="140.0" y1="512.0" x2="114.0" y2="512.0" stroke="#D4A94C" stroke-opacity="0.5" stroke-width="12.0"/>
  <line x1="152.7" y1="415.7" x2="127.6" y2="409.0" stroke="#D4A94C" stroke-opacity="0.5" stroke-width="12.0"/>
  <line x1="189.8" y1="326.0" x2="167.3" y2="313.0" stroke="#D4A94C" stroke-opacity="0.5" stroke-width="12.0"/>
  <line x1="249.0" y1="249.0" x2="230.6" y2="230.6" stroke="#D4A94C" stroke-opacity="0.5" stroke-width="12.0"/>
  <line x1="326.0" y1="189.8" x2="313.0" y2="167.3" stroke="#D4A94C" stroke-opacity="0.5" stroke-width="12.0"/>
  <line x1="415.7" y1="152.7" x2="409.0" y2="127.6" stroke="#D4A94C" stroke-opacity="0.5" stroke-width="12.0"/>
  <line x1="512.0" y1="140.0" x2="512.0" y2="114.0" stroke="#D4A94C" stroke-opacity="0.5" stroke-width="12.0"/>
  <line x1="608.3" y1="152.7" x2="615.0" y2="127.6" stroke="#D4A94C" stroke-opacity="0.5" stroke-width="12.0"/>
  <line x1="698.0" y1="189.8" x2="711.0" y2="167.3" stroke="#D4A94C" stroke-opacity="0.5" stroke-width="12.0"/>
  <line x1="775.0" y1="249.0" x2="793.4" y2="230.6" stroke="#D4A94C" stroke-opacity="0.5" stroke-width="12.0"/>
  <line x1="834.2" y1="326.0" x2="856.7" y2="313.0" stroke="#D4A94C" stroke-opacity="0.5" stroke-width="12.0"/>
  <line x1="871.3" y1="415.7" x2="896.4" y2="409.0" stroke="#D4A94C" stroke-opacity="0.5" stroke-width="12.0"/>
  <circle cx="512.0" cy="512.0" r="372.0" fill="none" stroke="#D4A94C" stroke-opacity="0.7" stroke-width="6.0"/>
  <circle cx="512.0" cy="512.0" r="413.0" fill="none" stroke="url(#ring)" stroke-width="34.0"/>
  <rect x="322.0" y="322.0" width="380.0" height="380.0" rx="34.0" ry="34.0" fill="#141010" fill-opacity="0.85" stroke="#D4A94C" stroke-width="30.0" stroke-linejoin="round"/>
  <circle cx="512.0" cy="512.0" r="30.0" fill="#D4A94C"/>
  <circle cx="412.0" cy="412.0" r="30.0" fill="#D4A94C"/>
  <circle cx="612.0" cy="412.0" r="30.0" fill="#D4A94C"/>
  <circle cx="412.0" cy="612.0" r="30.0" fill="#D4A94C"/>
  <circle cx="612.0" cy="612.0" r="30.0" fill="#D4A94C"/>
</svg>