<svg xmlns="http://www.w3.org/2000/svg" viewBox="0 0 690 192" width="690" height="192" font-family="sans-serif"><rect width="100%" height="100%" fill="#1F2226"/><circle cx="115.0" cy="32" r="22" fill="#9CA3AF" fill-opacity="0.16"/><g transform="translate(101.0,18) scale(0.0546875)"><path fill="#9CA3AF" d="M257.375 32.03C139.957 87.197 42.343 247.886 17.5 367.75c71.742 0 124.22 22.845 162.094 63.03l10.47-11.436c-28.06-28.873-64.935-52.446-113.564-75.906 26.142-65.033 66.028-163.458 116.72-169.188 19.835-2.243 41.05 9.735 64.155 43.438 72.33-120.27 141.014 38.54 180.875 125.75-47.687 25.854-84.5 49.463-112.97 78.718l9.25 10.406c37.335-39.758 89.657-64.812 162.72-64.812C467.784 249.384 377.24 90.37 257.375 32.03zm-79.72 243.314c-15.3-.083-26.405 6.436-26.405 16.656 0 12.58 16.834 26.038 37.594 30.063 20.76 4.024 37.594-2.92 37.594-15.5s-16.835-26.038-37.594-30.063c-3.893-.755-7.657-1.137-11.188-1.156zm156.345 0c-3.53.02-7.295.4-11.188 1.156-20.76 4.025-37.593 17.483-37.593 30.063 0 12.58 16.833 19.524 37.592 15.5 20.76-4.025 37.594-17.484 37.594-30.063 0-10.22-11.105-16.74-26.406-16.656z"/></g><text x="115.0" y="72" fill="#EDEFF2" font-size="12" text-anchor="middle">Дым за деревьями</text><text x="115.0" y="88" fill="#8b929a" font-size="10" text-anchor="middle">bandit_camp · hood</text><circle cx="345.0" cy="32" r="22" fill="#D4A94C" fill-opacity="0.16"/><g transform="translate(331.0,18) scale(0.0546875)"><path fill="#D4A94C" d="M222.156 20.72c-1.423.01-2.843.065-4.25.155-20.084 1.29-37.527 10.342-46.375 27.03l17.626 12.532h-29.312c-10.333-5.256.412-.266-11.375-5.28-23.158-13.118-48.787-9.64-67.25 2.812-20.062 13.527-30.734 35.806-20.25 60.093l3.093 7.156-6.47 4.31c-21.435 14.36-32.997 30.393-37.124 48.126C16.34 195.39 19.65 215.64 31 238.5l2.47 5.03-3.25 4.564c-13.796 19.38-8.88 38.668 5.968 51.03 10.043 8.364 19.48 9.982 29.656 7.407 10.177-2.574 21.15-10.15 30.72-21.874l2.655-3.25 4.155-.187c27.728-1.2 49.69-11.635 63.97-27.72 14.28-16.085 21.22-37.98 17.718-63.906L184.03 182l7.25-2.5c8.066-2.768 14.73-8.15 18.814-15.53l5.28-9.564 8.626 6.72c6.39 4.976 22.988 8.397 31.375 5.968l10.28-2.97 1.564 10.595c4.3 29.362 24.393 52.534 50.06 60.155l8.25 2.438-1.75 8.437c-3.162 14.99 1.497 26.075 10.44 33.406 8.94 7.332 22.793 10.683 38.75 6.438l6.217-1.656 3.782 5.25c13.513 18.845 29.945 28.087 46.342 29.562 16.398 1.475 33.29-4.745 48.032-19.594 12.624-12.716 16.654-26.51 15.062-40.437-1.59-13.93-9.318-28.12-21.75-39.533l-8.5-7.812 9.406-6.688c7.878-5.6 10.74-15.92 8.907-25.5-1.833-9.58-7.527-16.677-16.345-17.78l-9.375-1.157 1.28-9.375c5.842-42.567-13.62-77.648-45.342-97.656-31.723-20.01-75.673-24.486-118.782-3.095l-6.72 3.344-4.717-5.876c-13.464-16.796-34.023-25.768-54.033-26.782-1.43-.072-2.857-.104-4.28-.093zm-1.22 160.31c-4.003 4.804-8.867 8.724-14.25 11.782 11.968 29.99 18.83 60.783 23.033 93.532-4.555 11.237-9.676 22.38-15.5 33.437l-.157.064c-8.54-19.537-18.073-38.957-31.188-55.75-.51.607-1.035 1.218-1.563 1.812-3.628 4.088-7.652 7.838-12 11.25 12.034 15.867 21.048 34.83 29.72 54.938 7.724 43.39 6.386 91.267-2.782 134.812-26.727 5.073-55.198 15.22-88.594 30.5h252.938c-32.428-15.282-60.268-25.46-86.688-30.53-13.95-24.116-21.036-50.13-23.25-76 9.692-45.174 28.504-71.692 57-99.282-19.276 7.68-37.422 17.31-52.687 31.937.702-3.41 1.488-6.766 2.31-10.092 9.476-24.123 23.87-45.82 42.94-65.407-5.784-2.705-11.25-5.994-16.283-9.874-12.71 13.552-23.555 28.128-32.312 43.78 7.156-19.187 12.88-38.422 18.063-57.592-5.443-6.556-10.03-13.933-13.563-21.938-4.167 16.03-8.512 31.946-13.5 47.72-4.637-23.334-11.12-46.08-20.375-68.47-.438-.204-.88-.41-1.313-.625z"/></g><text x="345.0" y="72" fill="#EDEFF2" font-size="12" text-anchor="middle">Тишина между стволами</text><text x="345.0" y="88" fill="#8b929a" font-size="10" text-anchor="middle">ancient_forest_spirit · beech</text><circle cx="575.0" cy="32" r="22" fill="#D4A94C" fill-opacity="0.16"/><g transform="translate(561.0,18) scale(0.0546875)"><path fill="#D4A94C" d="M215.8 30.84l10 43.24c6.4-2.39 13.1-4.15 20.1-5.04l.6-44.72c-11.1 1.46-21.9 3.78-30.7 6.52zm49.4-6.51l-.6 44.53c7.2.78 14.1 2.49 20.6 4.86l10.1-43.12c-11.1-3.31-20-5.21-30.1-6.27zM313 36.92l-10.2 43.94c3.5.97 6.9 2.13 10.2 3.45l33.3-30.94c-10.9-6.45-22.2-11.98-33.3-16.45zm-114.9.33c-11.1 4.52-22.4 10.1-33.2 16.58l33.2 30.83c3.3-1.37 6.7-2.55 10.2-3.55zM362.4 63.9L330 94.03c1.5 1.29 2.9 2.68 4.3 4.17l41.9-.32c-3.4-9.68-10.7-29.36-13.8-33.98zm-213.5.51c-4.8 11.71-9.6 24.24-13.2 33.73l41.8.37c1.2-1.37 2.5-2.66 3.9-3.87zm39.8 51.09c-.8 2.3-1.1 4.9-.1 8.5 18.4-23.4 37.9-19.1 61.6-9.7l-7 17.4c-10.2-4.1-19.6-6.6-25.9-6.2-6.3.5-10.1 2.3-14.5 11.1l-11.3-5.5c2.8 8.3-6.4 15.5-13.8 10.9-3.3-2-5.3-1.7-5.4-1.7 2.7 12.8 4.8 27.8 9.5 38 1.6-5.5 3.4-9.8 8.4-10.6 4.7-.7 9.1 2.4 10.3 7 3.1 12.3 8.3 27.2 14.8 38 3.2 5.4 6.8 9.7 10 12.2 4.3 4.4 10.3 1.7 14.7 4.8 3.8 3.1 4.8 7.9 5.2 12 .5 4.1.8 9.3 1.1 15.7 1.2 32.7.7 63.2 2.3 95.1.2 8.8 1 23.4 7.4 27.4 7.2-6 6.9-18.9 7.4-27.4 1.6-32.8.9-62.9 2.4-95.1.2-6.4.5-11.6 1-15.7.4-4.5 1.8-9.5 5.3-12 5.1-2.5 10.8-1.9 14.6-4.8 3.2-2.5 6.8-6.8 10-12.2 6.5-10.8 11.7-25.7 14.8-38 1.2-4.6 5.7-8.2 10.3-7 7.3 1.9 6.9 6 8.4 10.6 5.4-13.4 7.8-26 9.5-38-.1 0-2-.3-5.4 1.7-7.4 4.5-16.4-2.5-13.8-10.8l-11.1 5.4c-4.4-8.8-8.2-10.6-14.5-11.1-6.3-.4-15.6 2.1-25.9 6.2l-7-17.3c23.5-9 46.1-13.5 61.6 9.4 1.1-4.2.5-7-.9-9.7-23.1-26.4-121.5-25.97-134 1.4zm151 24.8h.1c-.1-.1-.1 0-.1 0zM122 134.6l33-.1c2.9-7.1 7.6-11.6 14.6-12.7-.1-1.6-.2-3.2-.1-4.7l-40.7-.4c-2.2 6.4-5 12.9-6.8 17.9zm261.3-18.1l-40.9.3c.1 1.6.2 3.3.1 5 6.9 1.1 12.3 6.7 14.4 12.4l33 .1c-2.2-6-4.4-11.9-6.6-17.8zm-160.1 17.3c10-.3 18.9 8.1 19.4 15.4-10.8 5.7-28 2-34.4-.4l-9.3.7 8.6-6.9c4.8-6.3 10.4-8.7 15.7-8.8zm65 0c5.3.1 10.8 2.5 15.7 8.8l8.6 6.9-9.3-.7c-6.4 2.4-23.6 6.1-34.4.4.5-7.3 9.4-15.7 19.4-15.4zm68.3 19.1c-.9 5.5-1.9 11.1-3.4 16.9l48.9.1c-1.7-5.7-3.6-11.3-5.5-16.9zm-200.9.3l-40.2.1c-1.9 5.6-3.8 11.2-5.5 16.9l49.1-.1c-1.5-5.7-2.5-11.4-3.4-16.9zM256 172.1c4.2 3.6 9.2 3.5 14.1 3.8-3.6 5-7.8 9.1-14.1 10.6-6.3-1.5-10.5-5.6-14.1-10.6 4.9-.3 9.9-.2 14.1-3.8zm90 16.4c-4.3 9.7-14.2 17.3-23 12.1-.8 2.1-1.2 4.3-1.7 6.5l91.1-.6c-1.5-6-3.1-12-4.8-17.9zm-179.9.3l-61.8.1c-1.7 5.9-3.3 11.9-4.75 17.9l91.25.7c-.3-2.4-1.1-4.8-1.8-6.9-10.4 6.2-19.3-5.1-22.9-11.8zm89.9 8.6c2.9-4.3 12.3-2.2 13.3-.7 3.1 4.8 6.4 6.1 8.9 7.6-8.2 15-14.4 12.6-22.2 13.6-7.8-1-14 1.4-22.2-13.6 2.5-1.5 5.8-2.8 9-7.6 3.6-3.1 10-2.5 13.2.7zm160.6 27.8l-99.4.7-3.8 17.5h106.7c-1.1-6.2-2.2-12.2-3.5-18.2zm-321.28.3c-1.24 5.9-2.39 12-3.43 18.2H198.7l-3.8-17.5zM201.4 262c-30.7.8-63.5.4-94.9.4 7.1 7.1 16 14 24.2 15.8 32.7.5 48.3 1.1 72.2 1.1-.5-5.7-.9-11.5-1.5-17.3zm109.2.1c-.5 5.7-1 11.3-1.4 16.9 26.1-.6 36.6.2 72.1-.8 10.6-3.2 18.3-9 24.5-16.1zm-82.9.1c-2.5.4-5 .8-7.4 1.3 4.7 49.7 5.4 93.9 2.6 133.5 10.3 2.5 21.3 3.8 32.8 3.8 11.7 0 22.9-1.4 33.4-4-2.8-39.5-2-83.6 2.6-133.2-2.4-.5-4.9-.9-7.4-1.3-1.1 31.2-.3 60.9-2.3 91.2-.7 10.5-.4 24.1-4.9 31.6-5.7 6.5-12.6 12-21.1 11.7-8.4-.3-17.2-5.4-21.1-11.7-4.7-10-4.4-21.6-4.9-31.6-1.5-31.7-1.3-60.6-2.3-91.3zM99.28 281.5c-.72 1.4-1.37 2.7-1.94 4C47.21 403.6 115.7 487.7 256 487.7s208.8-84.1 158.7-202.2c-.6-1.3-1.3-2.6-2-3.9-5.8 5.2-12.7 10.2-21.3 13.1-.7 3.4-1.3 6.8-1.9 10.2 9.5 14.9 14.9 31.6 14.9 49.4 0 32.1-17.5 60.8-44.6 80.9-27 20.1-63.8 32.2-104.1 32.2-40.4 0-77.2-12.1-104.2-32.2-27.1-20.1-44.6-48.8-44.6-80.9 0-18.1 5.6-35.2 15.4-50.2-.5-3.1-1-6.3-1.6-9.4-8.7-2.9-15.6-7.9-21.42-13.2zm208.52 16.2c-.3 5.9-.6 11.7-.9 17.5l61.8.2c1-5.8 1.9-11.7 3-17.6zm-103.6.3l-63.8.1c1 6 2 11.8 3 17.6l61.7-.2c-.2-5.8-.5-11.6-.9-17.5zm102.2 35.9c-.2 6.1-.2 12-.2 17.9h56.4c1.1-5.8 2.1-11.8 3.1-17.7zm-100.7.3l-59.3.2c.9 6 2 11.9 3 17.7h56.4c0-5.9 0-11.8-.1-17.9zm-78 3.1c-1.4 5.5-2.1 11.2-2.1 17 0 17 6.1 33 17.2 46.9-7.6-21-11.6-42.3-15.1-63.9zm256.3 1.8c-3.3 20.4-7.2 40.6-14.2 60.5 10.2-13.6 15.9-29 15.9-45.3 0-5.1-.6-10.2-1.7-15.2zm-77.4 31.4c.1 6.1.4 12 .7 17.8h46.5c1.8-5.8 3.4-11.8 4.9-17.8zm-153.2.3c1.4 6 3.1 12 4.9 17.9h46.3c.4-5.9.7-11.8.8-17.9zM308.7 407c.5 5.1 1 10.1 1.6 15 8.9 5.2 15.4 4.6 21.3 1.7 6.2-4.1 12.7-9.9 15.1-16.7zm-143.3.3c3 6.3 9.8 13.7 15 16.4 5.9 2.9 12.4 3.5 21.3-1.7.6-4.8 1.1-9.7 1.6-14.7zm125.3 8.4c-11.1 2.5-22.9 3.8-35 3.8-12 0-23.5-1.3-34.4-3.7-.7 6.2-1.3 11.1-2 17.1-4.5 3.2-9.7 6.5-14.3 8.3 15.5 4.9 32.6 7.5 50.7 7.5s35.4-2.7 51-7.6c-5.7-2.4-9.2-4.9-14-8.2-.7-5.8-1.4-12.1-2-17.2z"/></g><text x="575.0" y="72" fill="#EDEFF2" font-size="12" text-anchor="middle">Проход глубже гробницы</text><text x="575.0" y="88" fill="#8b929a" font-size="10" text-anchor="middle">pharaoh · pharoah</text><circle cx="115.0" cy="128" r="22" fill="#9CA3AF" fill-opacity="0.16"/><g transform="translate(101.0,114) scale(0.0546875)"><path fill="#9CA3AF" d="M259.063 25.094c-56.045 0-106.836 9.775-144.438 26.125-18.8 8.174-34.34 17.96-45.594 29.53-11.254 11.57-18.28 25.338-18.28 40.188 0 9.936 3.17 19.388 8.625 28.03-10.218 21.883-15.844 45.794-15.844 70.782 0 103.158 95.757 187.844 215.532 187.844 119.776 0 215.563-84.686 215.563-187.844 0-24.99-5.653-48.897-15.875-70.78 5.454-8.644 8.625-18.096 8.625-28.032 0-14.85-7.026-28.617-18.28-40.188-11.256-11.57-26.825-21.356-45.626-29.53-37.603-16.35-88.363-26.126-144.408-26.126zm0 18.687c53.848 0 102.554 9.6 136.968 24.564 17.208 7.482 30.775 16.306 39.658 25.437 8.882 9.133 13 18.115 13 27.157 0 9.043-4.118 18.057-13 27.188-8.883 9.13-22.45 17.956-39.657 25.438-34.413 14.963-83.12 24.562-136.967 24.562-53.85 0-102.555-9.6-136.97-24.563-17.206-7.48-30.804-16.306-39.687-25.437-8.882-9.13-12.97-18.145-12.97-27.188 0-9.042 4.088-18.024 12.97-27.156 8.883-9.13 22.48-17.954 39.688-25.436 34.414-14.964 83.12-24.563 136.97-24.563zm-7.782 17.282c-80.57 0-146 26.008-146 57.844 0 31.836 65.43 57.81 146 57.813 40.04 0 76.404-6.613 102.782-16.94-21.316 3.34-45.064 5.845-70.656 5.845-86.066 0-155.937-21.656-155.937-47.906s69.868-47.282 155.936-47.282c20.43 0 39.926.725 57.813 2.906-24.816-7.704-55.957-12.28-89.94-12.28zM87.657 360.5c-9.916 19.897-14.758 36.638-15.78 49.03-1.23 14.906 2.752 22.238 6.655 24.626 3.905 2.388 11.497 2.48 23.376-5.75 9.25-6.41 20.16-17.73 31.375-34.406-16.778-9.432-32.1-20.71-45.624-33.5zm342.75.063c-13.532 12.782-28.872 24.043-45.656 33.468 11.21 16.666 22.13 27.97 31.375 34.376 11.88 8.23 19.472 8.138 23.375 5.75 3.903-2.388 7.886-9.72 6.656-24.625-1.022-12.38-5.855-29.098-15.75-48.967zm-199.25 64.25c1.36 21.275 5.296 37.554 10.344 48.468 6.272 13.56 13.26 17.82 17.72 17.908 4.457.088 11.14-3.683 17.374-16.907 5.133-10.89 9.165-27.52 10.437-49.467-9.175.965-18.51 1.468-27.967 1.468-9.437 0-18.75-.506-27.907-1.467z"/></g><text x="115.0" y="168" fill="#EDEFF2" font-size="12" text-anchor="middle">Хижина в чаще леса</text><text x="115.0" y="184" fill="#8b929a" font-size="10" text-anchor="middle">witch_hut · cauldron</text><circle cx="345.0" cy="128" r="22" fill="#9CA3AF" fill-opacity="0.16"/><g transform="translate(331.0,114) scale(0.0546875)"><path fill="#9CA3AF" d="M167.2 20.48L147 189.6s-44.4 17.3-60.77 33.7c-32.1 32.1-65.98 119.2-65.98 119.2l51.51-53.6L107.2 323l-18.73-51.5 6.76-7s51.27-44.3 80.97-39.7c36 5.6 78.8 75.7 78.8 75.7l-18.2 80.9c-54.1 26.1-106.6 55.2-159.39 83.9l79.29-22.2 12 47.9 15-50.3s38-30.2 60.8-31.5c20.8-1.1 58.4 22.5 58.4 22.5l-37.4 40.5 78.7-32.2-62.3-45c30.7-52.3 39.3-96.6 28.5-156.7 14-11.5 38.3-23.6 59.9-13.5l-18.2 30.5 46.7 59.4-15.4-53 10.3-21.2c26.2 23.9 42.8 62.7 44.2 96.8 1.5 34.9-48.4 92.9-48.4 92.9 63.4-39.8 78.2-86.1 67.7-133.4 11.4 1.2 23.2-1.9 36.3-4.2-30.9-10.9-39.8-21.6-51.4-37.3-7.7-15.6-17.4-31-28.2-46.2l1.9-16.9-30.4-22.9-37.5 9-25.5-157.82z"/></g><text x="345.0" y="168" fill="#EDEFF2" font-size="12" text-anchor="middle">Корни под ногами</text><text x="345.0" y="184" fill="#8b929a" font-size="10" text-anchor="middle">witch_circle · tree-roots</text><circle cx="575.0" cy="128" r="22" fill="#D4A94C" fill-opacity="0.16"/><g transform="translate(561.0,114) scale(0.0546875)"><path fill="#D4A94C" d="M254.6 27.6c-40.4 0-78.1 11.68-109.8 31.84l-35.3-25.72 13.6 41.51C77.93 112.9 49.13 169.7 49.13 233.1c0 18.1 2.37 35.7 6.79 52.5l-36.85 26.6 45.86-.1c29.36 70.3 96.57 120.8 176.07 126l14.9 46.3 15-46.5c78.3-6.2 144.3-56.4 173.3-125.8l48.7.1-39.2-28.3c4.1-16.3 6.3-33.3 6.3-50.8 0-62.4-27.9-118.3-71.8-156.03l14.2-43.35-36.6 26.66c-32-20.73-70.3-32.78-111.2-32.78zm8.6 18.87c31.5 1.43 60.9 10.63 86.4 25.73l-17.4 12.73c-20.8-11-44.2-17.72-69-19zm-18.7.1v19.49c-23.6 1.42-46 7.79-65.9 18.08L161 71.29c25.7-15.07 57.1-23.12 83.5-24.76zm121.9 36.97L330.8 192.2c-5.5-9.6-12.7-18.1-21.3-24.9 19-27.9 37.9-55.9 56.9-83.76zm-220.3 0l90.7 66.16c-11.3 2.4-21.8 6.9-31.1 13.1-19.9-26.4-39.7-52.9-59.6-79.26zm117.1 1.11c18.4 1.05 36 5.49 52 12.66l-52 37.99zm-18.7.1v47.45l-48.8-35.59c15.1-6.57 31.5-10.7 48.8-11.86zm-115.1 9.56l6.8 20.89c-16.8 17-30 37.6-38.27 60.5l-19.1-6.1C92.24 140 109.1 113 129.4 94.31zm252.5 2c21.2 19.69 37.7 44.29 47.9 71.99l-19 6.1c-8-21.4-20.3-40.8-35.8-57.1zM142.8 135.4l20 61.2-47.1-15.2c6.2-17 15.5-32.6 27.1-46zm225.5 2.3c10.5 12.6 18.9 26.9 24.7 42.4L349.9 194zm-113.7 28.9c38.3 0 69.2 30.9 69.2 69.3 0 38.3-30.9 69.2-69.2 69.2-38.4 0-69.3-30.9-69.3-69.2 0-38.4 30.9-69.3 69.3-69.3zm180.8 19.5c3.9 15 6 30.7 6 47 0 13.3-1.5 26.4-4.1 38.9L419 258.8c1.4-8.6 2.1-17.5 2.1-26.6 0-13.7-1.7-27.1-4.8-39.9 6.4-2.1 12.8-4.1 19.1-6.2zm-362.01 1.4l19.21 6.1c-2.95 12.4-4.52 25.4-4.52 38.6 0 9.7.82 19.2 2.41 28.4l-18.25 13.2a188.07 188.07 0 0 1-4.46-40.7c.64-16 2.33-32.3 5.61-45.6zM398.5 198c2.6 11 3.9 22.5 3.9 34.2 0 4.8-.2 9.5-.6 14.1l-47.3-34.1c14.7-4.7 29.3-9.5 44-14.2zm-288.1 1.4l44.8 14.4-47.6 34.4c-.6-5.3-.9-10.6-.9-16 .4-11.5 1.5-23.2 3.7-32.8zM342 226.2l92 66.5-95-32.4c3.2-12.1 4.1-22.7 3-34.1zm-170.4 38.7c3.6 10.4 9.2 20 16.3 28.3l-109.7.2c31.1-9.5 62.2-19 93.4-28.5zm16.8 47l-27.7 34.6c-12-9.8-22.3-21.5-30.7-34.5 19.5 0 39-.1 58.4-.1zm135.9 0l54.9.1c-7.9 12.3-17.6 23.3-28.6 32.8-8.8-11-17.6-22-26.3-32.9zm76.4.1l23.2.1c-11.5 24.6-28.1 46.2-48.6 63.5l-13.1-16.3c15.6-13.2 28.7-29.3 38.5-47.3zm-292.3 0c10.3 18.9 24.2 35.5 40.7 49l-13.2 16.4c-21.4-17.6-38.78-39.9-50.65-65.3zm182.2 4.1L256 423.3v-99.5c12.4-1 24.9-3.4 34.6-7.7zm17.7 5.8l27.3 34.1c-13.5 8.8-28.5 15.5-44.6 19.6 5.8-17.9 11.6-35.8 17.3-53.7zm-104.5.7l17.3 53.7c-16.3-3.8-31.5-10.2-45.2-18.8 9.3-11.7 18.6-23.3 27.9-34.9zm143.5 47.9l13.2 16.5c-24.3 16.7-52.6 27.8-83.3 31.5l7.2-22.4c23.4-5.9 45.7-14.2 62.9-25.6zm-183.1 1.6c18.8 12.2 40.4 20.7 63.4 24.5l7.2 22.2c-30.8-3.2-59.4-13.9-83.8-30.2z"/></g><text x="575.0" y="168" fill="#EDEFF2" font-size="12" text-anchor="middle">Поляна, которой нет на карте</text><text x="575.0" y="184" fill="#8b929a" font-size="10" text-anchor="middle">great_witch · pentagram-rose</text></svg>